<svg id="visual" viewBox="0 0 900 600" width="900" height="600" xmlns="http://www.w3.org/2000/svg" xmlns:xlink="http://www.w3.org/1999/xlink" version="1.1"><rect x="0" y="0" width="900" height="600" fill="#32047c"></rect><defs><linearGradient id="grad1_0" x1="33.3%" y1="0%" x2="100%" y2="100%"><stop offset="20%" stop-color="#8113db" stop-opacity="1"></stop><stop offset="80%" stop-color="#8113db" stop-opacity="1"></stop></linearGradient></defs><defs><linearGradient id="grad1_1" x1="33.3%" y1="0%" x2="100%" y2="100%"><stop offset="20%" stop-color="#8113db" stop-opacity="1"></stop><stop offset="80%" stop-color="#32047c" stop-opacity="1"></stop></linearGradient></defs><defs><linearGradient id="grad2_0" x1="0%" y1="0%" x2="66.7%" y2="100%"><stop offset="20%" stop-color="#8113db" stop-opacity="1"></stop><stop offset="80%" stop-color="#8113db" stop-opacity="1"></stop></linearGradient></defs><defs><linearGradient id="grad2_1" x1="0%" y1="0%" x2="66.7%" y2="100%"><stop offset="20%" stop-color="#32047c" stop-opacity="1"></stop><stop offset="80%" stop-color="#8113db" stop-opacity="1"></stop></linearGradient></defs><g transform="translate(900, 0)"><path d="M0 405.6C-60.8 407.4 -121.7 409.2 -155.2 374.7C-188.8 340.3 -195 269.5 -230.5 230.5C-266 191.5 -330.9 184.3 -364.9 151.2C-399 118 -402.3 59 -405.6 0L0 0Z" fill="#570cab"></path><path d="M0 202.8C-30.4 203.7 -60.8 204.6 -77.6 187.4C-94.4 170.1 -97.5 134.8 -115.3 115.3C-133 95.8 -165.4 92.1 -182.5 75.6C-199.5 59 -201.2 29.5 -202.8 0L0 0Z" fill="#8113db"></path></g><g transform="translate(0, 600)"><path d="M0 -405.6C46.4 -389.9 92.8 -374.2 148.9 -359.4C204.9 -344.6 270.5 -330.6 286.8 -286.8C303.1 -243.1 270.2 -169.5 281.8 -116.7C293.4 -63.9 349.5 -32 405.6 0L0 0Z" fill="#570cab"></path><path d="M0 -202.8C23.2 -195 46.4 -187.1 74.4 -179.7C102.4 -172.3 135.2 -165.3 143.4 -143.4C151.6 -121.5 135.1 -84.7 140.9 -58.4C146.7 -32 174.7 -16 202.8 0L0 0Z" fill="#8113db"></path></g></svg>