<svg id="visual" viewBox="0 0 900 600" width="900" height="600" xmlns="http://www.w3.org/2000/svg" xmlns:xlink="http://www.w3.org/1999/xlink" version="1.1"><rect x="0" y="0" width="900" height="600" fill="#ce06ca"></rect><path d="M0 344L21.5 344.3C43 344.7 86 345.3 128.8 345.5C171.7 345.7 214.3 345.3 257.2 338C300 330.7 343 316.3 385.8 323C428.7 329.7 471.3 357.3 514.2 376C557 394.7 600 404.3 642.8 397.3C685.7 390.3 728.3 366.7 771.2 358.8C814 351 857 359 878.5 363L900 367L900 601L878.5 601C857 601 814 601 771.2 601C728.3 601 685.7 601 642.8 601C600 601 557 601 514.2 601C471.3 601 428.7 601 385.8 601C343 601 300 601 257.2 601C214.3 601 171.7 601 128.8 601C86 601 43 601 21.5 601L0 601Z" fill="#e94eea"></path><path d="M0 383L21.5 390.5C43 398 86 413 128.8 422C171.7 431 214.3 434 257.2 425C300 416 343 395 385.8 387.8C428.7 380.7 471.3 387.3 514.2 383.8C557 380.3 600 366.7 642.8 372.5C685.7 378.3 728.3 403.7 771.2 416.5C814 429.3 857 429.7 878.5 429.8L900 430L900 601L878.5 601C857 601 814 601 771.2 601C728.3 601 685.7 601 642.8 601C600 601 557 601 514.2 601C471.3 601 428.7 601 385.8 601C343 601 300 601 257.2 601C214.3 601 171.7 601 128.8 601C86 601 43 601 21.5 601L0 601Z" fill="#e144dd"></path><path d="M0 450L21.5 444.7C43 439.3 86 428.7 128.8 430.5C171.7 432.3 214.3 446.7 257.2 458C300 469.3 343 477.7 385.8 481.3C428.7 485 471.3 484 514.2 479.7C557 475.3 600 467.7 642.8 467.7C685.7 467.7 728.3 475.3 771.2 477.8C814 480.3 857 477.7 878.5 476.3L900 475L900 601L878.5 601C857 601 814 601 771.2 601C728.3 601 685.7 601 642.8 601C600 601 557 601 514.2 601C471.3 601 428.7 601 385.8 601C343 601 300 601 257.2 601C214.3 601 171.7 601 128.8 601C86 601 43 601 21.5 601L0 601Z" fill="#d83ad1"></path><path d="M0 516L21.5 517.3C43 518.7 86 521.3 128.8 516C171.7 510.7 214.3 497.3 257.2 487.7C300 478 343 472 385.8 475.2C428.7 478.3 471.3 490.7 514.2 497.5C557 504.3 600 505.7 642.8 510.2C685.7 514.7 728.3 522.3 771.2 520.5C814 518.7 857 507.3 878.5 501.7L900 496L900 601L878.5 601C857 601 814 601 771.2 601C728.3 601 685.7 601 642.8 601C600 601 557 601 514.2 601C471.3 601 428.7 601 385.8 601C343 601 300 601 257.2 601C214.3 601 171.7 601 128.8 601C86 601 43 601 21.5 601L0 601Z" fill="#d030c5"></path><path d="M0 530L21.5 532.7C43 535.3 86 540.7 128.8 545.2C171.7 549.7 214.3 553.3 257.2 548.5C300 543.7 343 530.3 385.8 524.8C428.7 519.3 471.3 521.7 514.2 526.5C557 531.3 600 538.7 642.8 543C685.7 547.3 728.3 548.7 771.2 545.5C814 542.3 857 534.7 878.5 530.8L900 527L900 601L878.5 601C857 601 814 601 771.2 601C728.3 601 685.7 601 642.8 601C600 601 557 601 514.2 601C471.3 601 428.7 601 385.8 601C343 601 300 601 257.2 601C214.3 601 171.7 601 128.8 601C86 601 43 601 21.5 601L0 601Z" fill="#c724b9"></path></svg>