<svg id="visual" viewBox="0 0 900 600" width="900" height="600" xmlns="http://www.w3.org/2000/svg" xmlns:xlink="http://www.w3.org/1999/xlink" version="1.1"><rect x="0" y="0" width="900" height="600" fill="#a2089a"></rect><defs><linearGradient id="grad1_0" x1="33.3%" y1="100%" x2="100%" y2="0%"><stop offset="20%" stop-color="#850c7f" stop-opacity="1"></stop><stop offset="80%" stop-color="#850c7f" stop-opacity="1"></stop></linearGradient></defs><defs><linearGradient id="grad1_1" x1="33.3%" y1="100%" x2="100%" y2="0%"><stop offset="20%" stop-color="#850c7f" stop-opacity="1"></stop><stop offset="80%" stop-color="#930b8c" stop-opacity="1"></stop></linearGradient></defs><defs><linearGradient id="grad1_2" x1="33.3%" y1="100%" x2="100%" y2="0%"><stop offset="20%" stop-color="#a2089a" stop-opacity="1"></stop><stop offset="80%" stop-color="#930b8c" stop-opacity="1"></stop></linearGradient></defs><defs><linearGradient id="grad2_0" x1="0%" y1="100%" x2="66.7%" y2="0%"><stop offset="20%" stop-color="#850c7f" stop-opacity="1"></stop><stop offset="80%" stop-color="#850c7f" stop-opacity="1"></stop></linearGradient></defs><defs><linearGradient id="grad2_1" x1="0%" y1="100%" x2="66.7%" y2="0%"><stop offset="20%" stop-color="#930b8c" stop-opacity="1"></stop><stop offset="80%" stop-color="#850c7f" stop-opacity="1"></stop></linearGradient></defs><defs><linearGradient id="grad2_2" x1="0%" y1="100%" x2="66.7%" y2="0%"><stop offset="20%" stop-color="#930b8c" stop-opacity="1"></stop><stop offset="80%" stop-color="#a2089a" stop-opacity="1"></stop></linearGradient></defs><g transform="translate(900, 600)"><path d="M-486.7 0C-481 -49.6 -475.2 -99.2 -462.9 -150.4C-450.7 -201.6 -431.9 -254.5 -392.4 -285.1C-352.9 -315.7 -292.6 -324.1 -246.9 -339.8C-201.2 -355.5 -170 -378.5 -131.3 -404.2C-92.6 -429.9 -46.3 -458.3 0 -486.7L0 0Z" fill="#9b0993"></path><path d="M-324.5 0C-320.6 -33.1 -316.8 -66.1 -308.6 -100.3C-300.4 -134.4 -287.9 -169.6 -261.6 -190.1C-235.2 -210.5 -195 -216.1 -164.6 -226.5C-134.1 -237 -113.4 -252.3 -87.6 -269.5C-61.7 -286.6 -30.9 -305.6 0 -324.5L0 0Z" fill="#8c0b86"></path><path d="M-162.2 0C-160.3 -16.5 -158.4 -33.1 -154.3 -50.1C-150.2 -67.2 -144 -84.8 -130.8 -95C-117.6 -105.2 -97.5 -108 -82.3 -113.3C-67.1 -118.5 -56.7 -126.2 -43.8 -134.7C-30.9 -143.3 -15.4 -152.8 0 -162.2L0 0Z" fill="#850c7f"></path></g><g transform="translate(0, 0)"><path d="M486.7 0C441.3 41.1 395.8 82.3 371.9 120.8C348 159.4 345.6 195.4 339 246.3C332.3 297.2 321.3 363 286.1 393.8C250.9 424.5 191.4 420.2 139.7 429.9C88 439.5 44 463.1 0 486.7L0 0Z" fill="#9b0993"></path><path d="M324.5 0C294.2 27.4 263.8 54.8 247.9 80.6C232 106.3 230.4 130.2 226 164.2C221.5 198.1 214.2 242 190.7 262.5C167.2 283 127.6 280.2 93.1 286.6C58.6 293 29.3 308.8 0 324.5L0 0Z" fill="#8c0b86"></path><path d="M162.2 0C147.1 13.7 131.9 27.4 124 40.3C116 53.1 115.2 65.1 113 82.1C110.8 99.1 107.1 121 95.4 131.3C83.6 141.5 63.8 140.1 46.6 143.3C29.3 146.5 14.7 154.4 0 162.2L0 0Z" fill="#850c7f"></path></g></svg>